<svg xmlns="http://www.w3.org/2000/svg" viewBox="0 0 64 64" role="img" aria-label="Genome assembler graph icon">
  <rect width="64" height="64" rx="16" fill="#f7f1e8"/>
  <circle cx="16" cy="16" r="5" fill="#d96c3c"/>
  <circle cx="32" cy="16" r="5" fill="#2d7dd2"/>
  <circle cx="48" cy="16" r="5" fill="#7d5ba6"/>
  <circle cx="16" cy="32" r="5" fill="#238b67"/>
  <circle cx="32" cy="32" r="5" fill="#865d36"/>
  <circle cx="48" cy="32" r="5" fill="#4c6a92"/>
  <circle cx="32" cy="48" r="5" fill="#bf9b30"/>
  <path d="M16 16 C24 16, 24 16, 32 16" stroke="#8b7a69" stroke-width="2.5" fill="none"/>
  <path d="M32 16 C40 16, 40 16, 48 16" stroke="#8b7a69" stroke-width="2.5" fill="none"/>
  <path d="M32 16 C32 22, 32 24, 32 32" stroke="#8b7a69" stroke-width="2.5" fill="none"/>
  <path d="M16 32 C24 32, 24 32, 32 32" stroke="#8b7a69" stroke-width="2.5" fill="none"/>
  <path d="M32 32 C40 32, 40 32, 48 32" stroke="#8b7a69" stroke-width="2.5" fill="none"/>
  <path d="M32 32 C32 38, 32 40, 32 48" stroke="#8b7a69" stroke-width="2.5" fill="none"/>
</svg>

